<svg xmlns="http://www.w3.org/2000/svg" width="420" height="72" viewBox="0 0 420 72">
  <!-- Background pill -->
  <rect x="0" y="0" width="420" height="72" rx="14" ry="14" fill="#03040a" fill-opacity="0.82"/>
  <rect x="0" y="0" width="420" height="72" rx="14" ry="14" fill="none" stroke="#3b82f6" stroke-opacity="0.35" stroke-width="1.2"/>

  <!-- VEIL diamond logo -->
  <rect x="16" y="16" width="28" height="28" rx="6" ry="6" fill="#2563eb" transform="rotate(45 30 30)" fill-opacity="0.9"/>
  <rect x="20" y="20" width="20" height="20" rx="4" ry="4" fill="#3b82f6" transform="rotate(45 30 30)" fill-opacity="0.7"/>

  <!-- VEIL text -->
  <text x="58" y="30" font-family="'Segoe UI', system-ui, sans-serif" font-size="20" font-weight="800" fill="#ffffff" letter-spacing="-0.5">VEIL</text>
  <text x="58" y="48" font-family="'Segoe UI Mono', 'Consolas', monospace" font-size="11" fill="#3b82f6" letter-spacing="0.2">Protocol</text>

  <!-- Divider -->
  <line x1="128" y1="16" x2="128" y2="56" stroke="#1e3a5f" stroke-width="1"/>

  <!-- GitHub icon -->
  <g transform="translate(144, 20)" fill="#94a3b8">
    <path d="M16 0C7.16 0 0 7.16 0 16c0 7.08 4.58 13.06 10.94 15.18.8.14 1.1-.34 1.1-.76 0-.38-.02-1.64-.02-2.98-4.02.74-5.06-.98-5.38-1.88-.18-.46-.96-1.88-1.64-2.26-.56-.3-1.36-1.04-.02-1.06 1.26-.02 2.16 1.16 2.46 1.64 1.44 2.42 3.74 1.74 4.66 1.32.14-1.04.56-1.74 1.02-2.14-3.56-.4-7.28-1.78-7.28-7.9 0-1.74.62-3.18 1.64-4.3-.16-.4-.72-2.04.16-4.24 0 0 1.34-.42 4.4 1.64 1.28-.36 2.64-.54 4-.54 1.36 0 2.72.18 4 .54 3.06-2.08 4.4-1.64 4.4-1.64.88 2.2.32 3.84.16 4.24 1.02 1.12 1.64 2.54 1.64 4.3 0 6.14-3.74 7.5-7.3 7.9.58.5 1.08 1.46 1.08 2.96 0 2.14-.02 3.86-.02 4.4 0 .42.3.92 1.1.76C27.42 29.06 32 23.06 32 16 32 7.16 24.84 0 16 0z"/>
  </g>

  <!-- github text -->
  <text x="186" y="34" font-family="'Segoe UI Mono', 'Consolas', monospace" font-size="12" fill="#94a3b8">github.com/</text>
  <text x="186" y="52" font-family="'Segoe UI Mono', 'Consolas', monospace" font-size="12" fill="#60a5fa" font-weight="600">Gideon145/veil</text>

  <!-- Right badge -->
  <rect x="326" y="20" width="82" height="32" rx="8" fill="#1e3a5f" fill-opacity="0.7"/>
  <text x="367" y="32" font-family="'Segoe UI', system-ui, sans-serif" font-size="8" fill="#93c5fd" text-anchor="middle" letter-spacing="0.5">iExec Nox TEE</text>
  <text x="367" y="44" font-family="'Segoe UI', system-ui, sans-serif" font-size="8" fill="#6b7280" text-anchor="middle" letter-spacing="0.3">Arbitrum Sepolia</text>
</svg>
